<?xml version="1.0" encoding="UTF-8"?>
<!-- Generated by Pixelmator Pro 3.8 -->
<svg width="69" height="96" viewBox="0 0 69 96" xmlns="http://www.w3.org/2000/svg">
    <g id="Group-copy">
        <path id="Path" fill="#000000" stroke="none" d="M 58.366997 0.5 L 9.632999 0.5 C 4.695259 0.505508 0.69396 4.507263 0.688999 9.445 L 0.688999 86.555 C 0.69396 91.492744 4.695259 95.494492 9.632999 95.5 L 58.366997 95.5 C 63.304741 95.494492 67.306038 91.492744 67.310997 86.555 L 67.310997 9.445 C 67.306038 4.507263 63.304741 0.505508 58.366997 0.5 Z M 64.844002 86.555 C 64.840141 90.130714 61.942711 93.028587 58.366997 93.032997 L 9.632999 93.032997 C 6.057289 93.028587 3.159857 90.130714 3.156 86.555 L 3.156 9.445 C 3.159857 5.869286 6.057289 2.971405 9.632999 2.967003 L 58.366997 2.967003 C 61.942711 2.971405 64.840141 5.869286 64.844002 9.445 Z"/>
        <path id="path1" fill="#000000" stroke="none" d="M 8.4 9.752998 C 9.251623 9.752998 9.941999 9.062622 9.941999 8.210999 C 9.941999 7.359375 9.251623 6.668999 8.4 6.668999 C 7.548376 6.668999 6.858 7.359375 6.858 8.210999 C 6.858551 9.062393 7.548605 9.752449 8.4 9.752998 Z"/>
        <path id="path2" fill="#000000" stroke="none" d="M 59.599998 9.752998 C 60.223862 9.753807 60.786743 9.378624 61.026047 8.802483 C 61.26535 8.226341 61.133919 7.562775 60.693069 7.121353 C 60.252213 6.679924 59.588814 6.54763 59.012367 6.786186 C 58.435913 7.024742 58.059998 7.587135 58.059998 8.210999 C 58.060547 9.061615 58.74939 9.751343 59.599998 9.752998 Z"/>
        <path id="path3" fill="#000000" stroke="none" d="M 59.599998 86.247002 C 58.748375 86.247002 58.057999 86.937378 58.057999 87.789001 C 58.057999 88.640625 58.748375 89.331001 59.599998 89.331001 C 60.451622 89.331001 61.141998 88.640625 61.141998 87.789001 C 61.141449 86.937607 60.451393 86.247551 59.599998 86.247002 Z"/>
        <path id="path4" fill="#000000" stroke="none" d="M 8.4 86.247002 C 7.776138 86.246193 7.213255 86.621376 6.973953 87.197517 C 6.73465 87.773659 6.866083 88.437225 7.306934 88.878647 C 7.747786 89.320076 8.411184 89.45237 8.987635 89.213814 C 9.564087 88.975258 9.939999 88.412865 9.940001 87.789001 C 9.939451 86.938385 9.250614 86.248657 8.4 86.247002 Z"/>
        <path id="path5" fill="#000000" stroke="none" d="M 34 42.447998 C 38.769531 42.447998 42.636002 38.581528 42.636002 33.811996 C 42.636002 29.042465 38.769531 25.176003 34 25.176003 C 29.230469 25.176003 25.363998 29.042465 25.363998 33.811996 C 25.369511 38.579247 29.232754 42.44249 34 42.447998 Z M 34 27.648003 C 37.407043 27.648003 40.168999 30.409958 40.168999 33.817001 C 40.168999 37.224045 37.407043 39.986 34 39.986 C 30.592957 39.986 27.831001 37.224045 27.831001 33.817001 C 27.832653 30.409836 30.592834 27.647415 34 27.642998 Z"/>
        <path id="path6" fill="#000000" stroke="none" d="M 62.375999 33.811996 C 62.39782 19.918716 52.357292 8.052605 38.652027 5.774513 C 24.946766 3.496422 11.607426 11.476318 7.133558 24.629585 C 2.659691 37.782852 8.367039 52.241165 20.618999 58.792 C 18.202019 62.455856 18.950756 67.354553 22.351818 70.12915 C 25.752884 72.903748 30.702148 72.653503 33.806 69.550003 L 33.813 69.550003 C 35.858364 67.599014 39.075634 67.599014 41.120998 69.550003 C 42.091038 70.516716 42.635273 71.830513 42.632999 73.199997 L 42.632999 74.521004 L 39.706001 74.521004 C 38.602798 74.524292 37.709293 75.417801 37.706001 76.521004 L 37.706001 88.559998 C 37.709839 89.662971 38.603024 90.55616 39.706001 90.559998 L 50 90.559998 C 51.143745 90.563644 52.241501 90.110001 53.049004 89.300003 L 61.111 81.237 C 61.923538 80.429153 62.379059 79.329781 62.375999 78.183998 L 62.375999 76.522003 C 62.374901 75.415123 61.477875 74.518105 60.371002 74.516998 L 45.099998 74.516998 L 45.099998 73.199997 C 45.100533 71.175438 44.296513 69.23365 42.864933 67.802071 C 41.433353 66.370491 39.491562 65.566467 37.466999 65.567001 C 37.084225 65.569695 36.702175 65.600784 36.324001 65.660004 L 38.386002 61.817001 C 52.173073 59.636711 62.338181 47.770355 62.375999 33.811996 Z M 59.908997 78.183998 C 59.907768 78.674683 59.713005 79.145073 59.366997 79.492996 L 51.305 87.555 C 50.959969 87.903259 50.490234 88.099434 50 88.099998 L 40.168999 88.099998 L 40.168999 76.987 L 59.908997 76.987 Z M 8.09 33.811996 C 8.073458 20.26577 18.494385 8.993156 32.000221 7.947647 C 45.506058 6.90213 57.537704 16.436646 59.606148 29.824036 C 61.674583 43.211426 53.081581 55.932587 39.889999 59.012001 L 46.807999 46.112 C 47.064232 45.632629 46.976631 45.042061 46.592285 44.657715 C 46.207939 44.273369 45.617367 44.185768 45.138 44.442001 L 23.720001 55.936005 C 23.222942 56.208862 22.754005 56.53009 22.32 56.895004 C 13.622129 52.479248 8.127682 43.566505 8.09 33.811996 Z M 32.069 67.800003 L 32.069 67.800003 C 30.376949 69.499878 27.845787 70.05043 25.600529 69.20697 C 23.355274 68.363503 21.812668 66.282578 21.658352 63.889084 C 21.504032 61.495594 22.766647 59.233803 24.884998 58.109001 L 42.700001 48.555 L 33.143002 66.369003 C 32.866714 66.882751 32.518166 67.354225 32.108002 67.768997 Z"/>
        <path id="path7" fill="#000000" stroke="none" d="M 33.229 74.519997 L 27.762001 74.519997 C 21.67308 74.50898 16.740704 69.573929 16.733002 63.485001 L 16.733002 60.341 C 16.730751 59.705654 16.426754 59.109169 15.914 58.734001 C 13.361076 56.878555 11.106138 54.644531 9.226999 52.109001 C 8.711481 51.421616 7.814531 51.14032 6.998798 51.410187 C 6.183065 51.680054 5.630856 52.440796 5.627001 53.300003 L 5.627001 78.182999 C 5.623226 79.329216 6.078838 80.429169 6.892 81.237 L 14.951 89.300003 C 15.759253 90.112419 16.859016 90.567589 18.005001 90.564003 L 33.229 90.564003 C 34.331974 90.560158 35.225159 89.666977 35.229 88.564003 L 35.229 76.524002 C 35.227905 75.419235 34.333759 74.5233 33.229 74.519997 Z M 32.766998 88.099998 L 18.005001 88.099998 C 17.513321 88.101295 17.04158 87.905754 16.695 87.556999 L 8.632 79.494003 C 8.283384 79.14782 8.088146 78.6763 8.09 78.184998 L 8.09 54.671997 C 9.887653 56.898705 11.963221 58.885887 14.266001 60.584999 L 14.266001 63.485001 C 14.276457 70.934166 20.310837 76.97123 27.759998 76.985001 L 32.766998 76.985001 Z"/>
        <path id="path8" fill="#000000" stroke="none" d="M 43.868999 84.389999 C 44.549347 84.388344 45.100002 83.836349 45.099998 83.155998 L 45.099998 80.689003 C 45.112789 80.239937 44.88052 79.819405 44.493614 79.591103 C 44.106705 79.362801 43.626293 79.362801 43.239388 79.591103 C 42.852478 79.819405 42.620213 80.239937 42.632999 80.689003 L 42.632999 83.155998 C 42.632999 83.483627 42.763283 83.797798 42.995136 84.029274 C 43.22699 84.260757 43.541378 84.390533 43.868999 84.389999 Z"/>
        <path id="path9" fill="#000000" stroke="none" d="M 48.805 84.389999 C 49.48613 84.38945 50.038002 83.837128 50.038002 83.155998 L 50.038002 80.689003 C 50.050789 80.239937 49.81852 79.819405 49.43161 79.591103 C 49.044708 79.362801 48.564293 79.362801 48.177383 79.591103 C 47.790478 79.819405 47.558212 80.239937 47.570999 80.689003 L 47.570999 83.155998 C 47.570999 83.837517 48.123482 84.389999 48.805 84.389999 Z"/>
        <path id="path10" fill="#000000" stroke="none" d="M 27.759998 59.792 C 25.716545 59.792 24.060001 61.448547 24.060001 63.491997 C 24.060001 65.535454 25.716545 67.192001 27.759998 67.192001 C 29.803455 67.192001 31.459999 65.535454 31.459999 63.491997 C 31.459999 61.448547 29.803455 59.792 27.759998 59.792 Z M 27.759998 64.726997 C 27.079273 64.723694 26.529804 64.169754 26.532005 63.489021 C 26.53421 62.808289 27.087254 62.257919 27.76799 62.259018 C 28.448727 62.260117 28.999992 62.812263 29 63.492996 C 28.999737 63.821236 28.868816 64.135864 28.636158 64.367401 C 28.403496 64.598938 28.088234 64.728333 27.759998 64.726997 Z"/>
    </g>
</svg>
